<svg id="Layer_1" enable-background="new 0 0 512 512" height="512" viewBox="0 0 512 512" width="512" xmlns="http://www.w3.org/2000/svg"><g><circle cx="256" cy="256" fill="#5abeff" r="256"/><path d="m256 512v-512c141.159 0 256 114.841 256 256s-114.841 256-256 256z" fill="#469be6"/><path d="m256 192.8c-8.284 0-15 6.716-15 15v303.749c4.965.288 9.964.451 15 .451s10.035-.163 15-.451v-303.749c0-8.284-6.716-15-15-15z" fill="#324b5f"/><path d="m367.258 268.111-57.6 57.616c-2.812 2.813-4.392 6.628-4.392 10.605v170.891c10.23-2.002 20.242-4.616 30-7.802v-156.876l53.208-53.223c5.856-5.859 5.855-15.356-.003-21.214-5.859-5.855-15.356-5.856-21.213.003z" fill="#1e323c"/><path d="m144.742 268.111c-5.857-5.858-15.354-5.859-21.214-.003-5.858 5.857-5.859 15.354-.003 21.214l53.208 53.223v156.878c9.758 3.185 19.77 5.799 30 7.802v-170.892c0-3.978-1.58-7.792-4.392-10.605z" fill="#324b5f"/><path d="m271 511.549v-303.749c0-8.284-6.716-15-15-15v319.2c5.036 0 10.035-.163 15-.451z" fill="#1e323c"/><path d="m111.4 208.866c-25.989 0-47.134 21.145-47.134 47.134s21.145 47.134 47.134 47.134 47.133-21.145 47.133-47.134-21.143-47.134-47.133-47.134z" fill="#f5fafa"/><path d="m400.6 208.866c-25.989 0-47.133 21.145-47.133 47.134s21.144 47.134 47.133 47.134 47.134-21.145 47.134-47.134-21.145-47.134-47.134-47.134z" fill="#e1ebf0"/><path d="m256 128.533c-25.989 0-47.134 21.145-47.134 47.134s21.145 47.133 47.134 47.133 47.134-21.144 47.134-47.133-21.145-47.134-47.134-47.134z" fill="#f5fafa"/><path d="m256 128.533v94.267c25.989 0 47.134-21.144 47.134-47.133s-21.145-47.134-47.134-47.134z" fill="#e1ebf0"/></g></svg>